<svg xmlns="http://www.w3.org/2000/svg" width="32.821" height="12.051" viewBox="0 0 32.821 12.051">
  <g id="fa077b26a319ff20d6e489ecd28f5a01" transform="translate(-20.25 -169.737)">
    <path id="Caminho_487" data-name="Caminho 487" d="M49.11,181.788h-24.9a3.965,3.965,0,0,1-3.961-3.959V173.7a3.965,3.965,0,0,1,3.961-3.959h24.9a3.965,3.965,0,0,1,3.961,3.959v4.133A3.965,3.965,0,0,1,49.11,181.788ZM24.211,170.6a3.1,3.1,0,0,0-3.095,3.093v4.133a3.1,3.1,0,0,0,3.095,3.093h24.9a3.1,3.1,0,0,0,3.095-3.093V173.7A3.1,3.1,0,0,0,49.11,170.6Z" fill="#0a5f36"/>
    <path id="Caminho_488" data-name="Caminho 488" d="M73.18,224.157a.432.432,0,0,1-.351-.179l-1.06-1.459-1.066,1.46a.433.433,0,0,1-.7-.511l1.065-1.458-1.722-.562a.433.433,0,0,1,.269-.824l1.721.562,0-1.811a.433.433,0,0,1,.433-.434h0a.433.433,0,0,1,.433.433l0,1.812,1.718-.562a.433.433,0,0,1,.269.823l-1.72.562,1.06,1.459a.433.433,0,0,1-.35.688Zm6.46,0a.432.432,0,0,1-.35-.178l-1.064-1.46-1.066,1.46a.433.433,0,0,1-.7-.511l1.065-1.458-1.721-.562a.433.433,0,1,1,.269-.823l1.72.562,0-1.811a.433.433,0,0,1,.433-.434h0a.433.433,0,0,1,.433.433l0,1.812,1.718-.562a.433.433,0,1,1,.269.823l-1.719.562,1.063,1.458a.433.433,0,0,1-.35.688Zm3.629,0a.433.433,0,0,1-.35-.688l1.062-1.458-1.722-.562a.433.433,0,1,1,.269-.823l1.721.562v-1.811a.433.433,0,1,1,.866,0v1.811l1.718-.562a.433.433,0,0,1,.269.823l-1.719.562,1.063,1.458a.433.433,0,0,1-.7.51l-1.063-1.459-1.063,1.459A.433.433,0,0,1,83.268,224.157Zm12.158,1.026h-4.3a.9.9,0,0,1-.9-.9v-3.114a.9.9,0,0,1,.9-.9h4.3a.9.9,0,0,1,.9.9v3.114A.9.9,0,0,1,95.426,225.183Zm-4.3-4.051a.038.038,0,0,0-.036.035v3.114a.036.036,0,0,0,.036.035h4.3a.036.036,0,0,0,.036-.035v-3.114a.038.038,0,0,0-.036-.035Z" transform="translate(-45.408 -45.787)" fill="#0a5f36"/>
    <path id="Caminho_489" data-name="Caminho 489" d="M391.9,195.319h-3.249a.433.433,0,0,1-.433-.433v-1.626a2.058,2.058,0,1,1,4.115,0v1.626A.433.433,0,0,1,391.9,195.319Zm-2.816-.866h2.383V193.26a1.191,1.191,0,1,0-2.383,0Zm1.193,2.816a.756.756,0,1,1,.754-.757A.759.759,0,0,1,390.279,197.269Zm0-.866a.111.111,0,0,0-.112.109.112.112,0,0,0,.112.112.111.111,0,0,0,0-.221Z" transform="translate(-342.407 -19.974)" fill="#0a5f36"/>
    <path id="Caminho_490" data-name="Caminho 490" d="M412.066,268.795a.433.433,0,0,1-.433-.433v-.773a.433.433,0,1,1,.866,0v.773A.433.433,0,0,1,412.066,268.795Z" transform="translate(-364.195 -90.651)" fill="#0a5f36"/>
  </g>
</svg>
