<svg xmlns="http://www.w3.org/2000/svg" width="16.642" height="15.861" viewBox="0 0 16.642 15.861">
  <path id="_65eec07ddb02b42afb493877723c01b7" data-name="65eec07ddb02b42afb493877723c01b7" d="M24.7,26.907a4.453,4.453,0,1,0-4.441-4.465A4.442,4.442,0,0,0,24.7,26.907Zm0-7.735a3.27,3.27,0,1,1-3.27,3.294A3.27,3.27,0,0,1,24.7,19.171Zm-7.711,14.69H32.456a.594.594,0,0,0,.586-.586,5.6,5.6,0,0,0-5.588-5.588H21.988A5.6,5.6,0,0,0,16.4,33.275.594.594,0,0,0,16.986,33.861Zm5-5h5.466a4.4,4.4,0,0,1,4.368,3.831H17.62A4.4,4.4,0,0,1,21.988,28.859Z" transform="translate(-16.4 -18)" fill="#0a5f36"/>
</svg>
